<svg xmlns="http://www.w3.org/2000/svg" width="1000" height="1000" viewBox="0 0 1000 1000"><rect width="1000" height="1000" fill="white"/><g fill="none" stroke-linecap="round"><circle cx="500" cy="500" r="330" stroke="#F5D878" stroke-width="34"/><circle cx="500" cy="500" r="205" stroke="#D97757" stroke-width="22"/><path d="M500 120v140M500 740v140M120 500h140M740 500h140M231 231l99 99M670 670l99 99M231 769l99-99M670 330l99-99" stroke="#D97757" stroke-width="35"/><path d="M415 422l-78 78 78 78M585 422l78 78-78 78M535 387l-70 226" stroke="#252522" stroke-width="22"/></g><g fill="#D97757"><circle cx="500" cy="170" r="38"/><circle cx="830" cy="500" r="38"/><circle cx="500" cy="830" r="38"/><circle cx="170" cy="500" r="38"/></g></svg>